<?xml version="1.0"?>
<svg xmlns="http://www.w3.org/2000/svg" xmlns:xlink="http://www.w3.org/1999/xlink" version="1.1" id="Capa_1" x="0px" y="0px" viewBox="0 0 512 512" style="enable-background:new 0 0 512 512;" xml:space="preserve" width="20px" height="20px" class=""><g><g>
	<g>
		<path d="M466.003,150c-14.054-18.718-36.226-30-60.003-30h-30H256H136h-30c-23.777,0-45.949,11.282-60.003,30H0v90h31v75    c0,19.944,12.858,36.411,30,42.452V512c40.343,0,349.032,0,390,0V357.43c17.459-6.191,30-22.874,30-42.43v-75h31v-90H466.003z     M46,210H30v-30h16c8.271,0,15,6.729,15,15S54.271,210,46,210z M181,482h-30V330h-30v152H91l-0.003-152h-15    C67.707,330,61,323.295,61,315v-77.58c17.459-6.192,30-22.865,30-42.42c0-13.305-5.809-25.275-15.019-33.521    C84.117,154.202,94.761,150,106,150h75V482z M301,482h-30V330h-30v152h-30V150h90V482z M451,315c0,8.271-6.728,15-15,15h-15v152    h-30V330h-30v152h-30V150h75c11.239,0,21.883,4.202,30.019,11.479C426.809,169.725,421,181.695,421,195    c0,19.555,12.541,36.228,30,42.42V315z M482,210h-16c-8.271,0-15-6.729-15-15s6.729-15,15-15h16V210z" data-original="#000000" class="active-path" data-old_color="#000000" fill="#FFFFFF"/>
	</g>
</g><g>
	<g>
		<path d="M376,0c-33.084,0-60,26.916-60,60s26.916,60,60,60s60-26.916,60-60S409.084,0,376,0z M376,90c-16.542,0-30-13.458-30-30    s13.458-30,30-30s30,13.458,30,30S392.542,90,376,90z" data-original="#000000" class="active-path" data-old_color="#000000" fill="#FFFFFF"/>
	</g>
</g><g>
	<g>
		<path d="M136,0c-33.084,0-60,26.916-60,60s26.916,60,60,60s60-26.916,60-60S169.084,0,136,0z M136,90c-16.542,0-30-13.458-30-30    s13.458-30,30-30s30,13.458,30,30S152.542,90,136,90z" data-original="#000000" class="active-path" data-old_color="#000000" fill="#FFFFFF"/>
	</g>
</g><g>
	<g>
		<path d="M256,0c-33.084,0-60,26.916-60,60s26.916,60,60,60s60-26.916,60-60S289.084,0,256,0z M256,90c-16.542,0-30-13.458-30-30    s13.458-30,30-30s30,13.458,30,30S272.542,90,256,90z" data-original="#000000" class="active-path" data-old_color="#000000" fill="#FFFFFF"/>
	</g>
</g></g> </svg>
