<?xml version="1.0"?>
<svg xmlns="http://www.w3.org/2000/svg" height="20px" viewBox="-31 0 511 512" width="20px"><g><path d="m135.707031 78.082031c8.285157 0 15-6.714843 15-15v-48.082031c0-8.285156-6.714843-15-15-15-8.28125 0-15 6.714844-15 15v48.082031c0 8.285157 6.71875 15 15 15zm0 0" data-original="#000000" class="active-path" data-old_color="#000000" fill="#FAFAFA"/><path d="m69.238281 89.953125c2.929688 2.929687 6.769531 4.394531 10.609375 4.394531 3.835938 0 7.675782-1.464844 10.605469-4.394531 5.855469-5.855469 5.855469-15.355469 0-21.214844l-35.355469-35.351562c-5.855468-5.859375-15.355468-5.859375-21.210937 0-5.859375 5.855469-5.859375 15.351562 0 21.210937zm0 0" data-original="#000000" class="active-path" data-old_color="#000000" fill="#FAFAFA"/><path d="m78.582031 135.207031c0-8.28125-6.714843-15-15-15h-48.082031c-8.285156 0-15 6.71875-15 15 0 8.285157 6.714844 15 15 15h48.082031c8.285157 0 15-6.714843 15-15zm0 0" data-original="#000000" class="active-path" data-old_color="#000000" fill="#FAFAFA"/><path d="m448.324219 363.566406-160.929688-263.652344c9.585938-17.136718 7.117188-39.25-7.4375-53.800781-17.542969-17.546875-46.09375-17.546875-63.640625 0l-169.703125 169.703125c-17.546875 17.546875-17.546875 46.09375 0 63.640625 8.773438 8.773438 20.296875 13.160157 31.820313 13.160157 7.589844 0 15.175781-1.917969 21.980468-5.722657l154.902344 94.550781-53.734375 53.734376c-8.496093 8.5-13.179687 19.800781-13.179687 31.820312s4.679687 23.320312 13.179687 31.820312 19.800781 13.179688 31.820313 13.179688c12.019531 0 23.320312-4.683594 31.820312-13.179688l69.128906-69.132812 29.714844 18.136719c2.417969 1.476562 5.125 2.195312 7.8125 2.195312 3.875 0 7.71875-1.5 10.609375-4.394531l63.640625-63.640625c4.898438-4.894531 5.804688-12.503906 2.195313-18.417969zm-380.5-105.320312c-2.832031-2.835938-4.390625-6.601563-4.390625-10.609375 0-4.003907 1.558594-7.773438 4.390625-10.605469l169.707031-169.707031c2.832031-2.832031 6.601562-4.390625 10.605469-4.390625 4.007812 0 7.773437 1.558594 10.605469 4.390625 2.835937 2.835937 4.394531 6.601562 4.394531 10.609375 0 4.003906-1.558594 7.769531-4.394531 10.605468l-169.703126 169.707032c-2.832031 2.832031-6.601562 4.394531-10.605468 4.394531-4.007813 0-7.773438-1.5625-10.609375-4.394531zm176.183593 219.359375c-2.832031 2.832031-6.597656 4.394531-10.605468 4.394531-4.003906 0-7.773438-1.5625-10.605469-4.394531s-4.394531-6.601563-4.394531-10.605469c0-4.007812 1.5625-7.773438 4.394531-10.605469l58.867187-58.867187 26.34375 16.082031zm125.613282-61.539063-245.890625-150.085937 142.75-142.75 150.089843 245.890625zm0 0" data-original="#000000" class="active-path" data-old_color="#000000" fill="#FAFAFA"/></g> </svg>
